<?xml version="1.0" encoding="UTF-8"?>
<svg viewBox="0 0 36 36" version="1.1" xmlns="http://www.w3.org/2000/svg" xmlns:xlink="http://www.w3.org/1999/xlink">
    <title>Grid</title>
    <g id="Page-1" stroke="none" stroke-width="1" fill="none" fill-rule="evenodd">
        <g id="Individual-Work-—-Vertical" transform="translate(-1556.000000, -188.000000)" fill="currentColor">
            <g id="Group-19" transform="translate(1556.000000, 188.000000)">
                <path d="M6.35869565,7.04347826 L0.684782609,7.04347826 C0.306586957,7.04347826 0,6.7368913 0,6.35869565 L0,0.684782609 C0,0.306586957 0.306586957,0 0.684782609,0 L6.35869565,0 C6.7368913,0 7.04347826,0.306586957 7.04347826,0.684782609 L7.04347826,6.35869565 C7.04347826,6.7368913 6.7368913,7.04347826 6.35869565,7.04347826" id="Fill-1"></path>
                <path d="M20.4456522,7.04347826 L14.7717391,7.04347826 C14.3935435,7.04347826 14.0869565,6.7368913 14.0869565,6.35869565 L14.0869565,0.684782609 C14.0869565,0.306586957 14.3935435,0 14.7717391,0 L20.4456522,0 C20.8238478,0 21.1304348,0.306586957 21.1304348,0.684782609 L21.1304348,6.35869565 C21.1304348,6.7368913 20.8238478,7.04347826 20.4456522,7.04347826" id="Fill-3"></path>
                <path d="M35.3152174,7.04347826 L29.6413043,7.04347826 C29.2631087,7.04347826 28.9565217,6.7368913 28.9565217,6.35869565 L28.9565217,0.684782609 C28.9565217,0.306586957 29.2631087,0 29.6413043,0 L35.3152174,0 C35.693413,0 36,0.306586957 36,0.684782609 L36,6.35869565 C36,6.7368913 35.693413,7.04347826 35.3152174,7.04347826" id="Fill-5"></path>
                <path d="M6.35869565,21.1304348 L0.684782609,21.1304348 C0.306586957,21.1304348 0,20.8238478 0,20.4456522 L0,14.7717391 C0,14.3935435 0.306586957,14.0869565 0.684782609,14.0869565 L6.35869565,14.0869565 C6.7368913,14.0869565 7.04347826,14.3935435 7.04347826,14.7717391 L7.04347826,20.4456522 C7.04347826,20.8238478 6.7368913,21.1304348 6.35869565,21.1304348" id="Fill-7"></path>
                <path d="M20.4456522,21.1304348 L14.7717391,21.1304348 C14.3935435,21.1304348 14.0869565,20.8238478 14.0869565,20.4456522 L14.0869565,14.7717391 C14.0869565,14.3935435 14.3935435,14.0869565 14.7717391,14.0869565 L20.4456522,14.0869565 C20.8238478,14.0869565 21.1304348,14.3935435 21.1304348,14.7717391 L21.1304348,20.4456522 C21.1304348,20.8238478 20.8238478,21.1304348 20.4456522,21.1304348" id="Fill-9"></path>
                <path d="M35.3152174,21.1304348 L29.6413043,21.1304348 C29.2631087,21.1304348 28.9565217,20.8238478 28.9565217,20.4456522 L28.9565217,14.7717391 C28.9565217,14.3935435 29.2631087,14.0869565 29.6413043,14.0869565 L35.3152174,14.0869565 C35.693413,14.0869565 36,14.3935435 36,14.7717391 L36,20.4456522 C36,20.8238478 35.693413,21.1304348 35.3152174,21.1304348" id="Fill-11"></path>
                <path d="M6.35869565,36 L0.684782609,36 C0.306586957,36 0,35.693413 0,35.3152174 L0,29.6413043 C0,29.2631087 0.306586957,28.9565217 0.684782609,28.9565217 L6.35869565,28.9565217 C6.7368913,28.9565217 7.04347826,29.2631087 7.04347826,29.6413043 L7.04347826,35.3152174 C7.04347826,35.693413 6.7368913,36 6.35869565,36" id="Fill-13"></path>
                <path d="M20.4456522,36 L14.7717391,36 C14.3935435,36 14.0869565,35.693413 14.0869565,35.3152174 L14.0869565,29.6413043 C14.0869565,29.2631087 14.3935435,28.9565217 14.7717391,28.9565217 L20.4456522,28.9565217 C20.8238478,28.9565217 21.1304348,29.2631087 21.1304348,29.6413043 L21.1304348,35.3152174 C21.1304348,35.693413 20.8238478,36 20.4456522,36" id="Fill-15"></path>
                <path d="M35.3152174,36 L29.6413043,36 C29.2631087,36 28.9565217,35.693413 28.9565217,35.3152174 L28.9565217,29.6413043 C28.9565217,29.2631087 29.2631087,28.9565217 29.6413043,28.9565217 L35.3152174,28.9565217 C35.693413,28.9565217 36,29.2631087 36,29.6413043 L36,35.3152174 C36,35.693413 35.693413,36 35.3152174,36" id="Fill-17"></path>
            </g>
        </g>
    </g>
</svg>
