<?xml version="1.0" encoding="UTF-8"?>
<svg width="220" viewBox="0 0 242 24" xmlns="http://www.w3.org/2000/svg"><path d="M150.251 5.275v2.371l-3.543-1.171c.932.88 1.412 1.838 1.412 3.01 0 2.025-1.971 3.757-4.929 3.757-.346 0-.826-.053-1.411-.133-.134.4-.214.746-.214 1.012 0 .826.56 1.119 1.758 1.119h2.825c2.37 0 3.516.746 3.516 2.824 0 1.279-.719 2.664-2.025 3.677-1.358 1.039-3.01 1.518-5.088 1.518-3.25 0-5.435-1.439-5.435-2.877 0-.933.933-1.679 2.77-2.611-.692-.453-1.038-1.012-1.038-1.652 0-1.012.959-1.838 2.744-3.064-2.371-.507-3.65-1.786-3.65-3.65 0-2.37 2.078-4.13 4.955-4.13 1.306 0 2.398.266 3.49.933l3.863-.933zM47.9 5.435c-.507.692-.8 1.199-.8 1.652 0 .133.053.4.187.799l2.53 6.82 2.052-6.554c.133-.453.213-.772.213-1.012 0-.373-.266-.906-.719-1.705h4.023c-1.013 1.012-1.572 2.131-2.051 3.357l-3.677 9.484c-1.305 3.41-2.185 4.955-4.716 4.955-.533 0-1.198-.08-1.945-.213v-3.144l1.679 1.306c.426.32.772.506 1.065.506.88 0 1.466-1.145 2.425-3.49l-4.183-9.91c-.186-.454-.506-1.44-1.865-2.851H47.9zm92.201 12.441c-.426.72-.666 1.332-.666 1.865 0 1.252 1.305 2.158 3.49 2.158 2.637 0 4.343-1.252 4.343-2.504 0-.88-.56-1.225-1.732-1.225h-3.677c-.666 0-1.225-.027-1.758-.294zM113.115.32c-.906 1.598-.906 2.744-.906 3.756v7.913c0 3.277.906 4.822 3.73 4.822 1.865 0 3.117-.666 3.676-1.865.373-.773.4-1.679.4-2.744V4.076c0-1.066-.053-2.211-.932-3.756h4.102c-.984 1.59-1.036 2.702-1.039 3.675v7.994c0 1.385-.026 2.584-.586 3.65-.852 1.625-2.984 2.557-6.127 2.557-4.61 0-6.528-1.652-6.528-5.461V4.156c0-1.012 0-2.158-1.039-3.836h5.249zM26.188 5.275c1.865 0 3.117.346 3.836 1.226.364.46.418 1.074.425 1.842l.001 5.431c0 1.119.08 2.184.96 3.489l-3.41.72c-.32-.48-.507-1.04-.614-1.652-1.491 1.12-2.717 1.652-3.57 1.652-1.944 0-3.383-1.519-3.383-3.57 0-2.478 1.812-3.597 5.542-3.597.453 0 .905.027 1.411.054V8.925c0-1.652-.426-2.424-1.917-2.424-1.093 0-2.105 1.092-3.944 2.85V5.968a16.479 16.479 0 014.663-.693zm53.52-.107V6.98c1.971-1.092 3.41-1.705 4.502-1.705 2.078 0 3.037 1.492 3.037 4.502v4.316c0 .986.027 2.105.96 3.677h-5.142c.959-1.652.959-2.797.959-3.837v-3.01c0-2.77-.4-3.81-3.037-3.81-.427 0-.853.054-1.279.134v6.686c0 1.013 0 2.185.986 3.837h-5.169c.96-1.652.986-2.797.986-3.837V9.884c0-1.305-.266-2.424-.986-3.676l4.183-1.04zM4.396.32l5.301 12.76L15.212.32h3.943c-.986 1.652-.986 2.824-.986 3.836v9.777c0 1.013 0 2.185.986 3.837h-5.248c.906-1.56.98-2.67.985-3.663V5.195L9.431 17.77H7.966L2.69 5.195v8.898c0 .986.026 2.105.959 3.677H0c.906-1.56.98-2.67.986-3.663V4.156C.986 3.117.959 1.972 0 .32h4.396zm32.501 4.848v2.238c1.385-1.332 2.318-2.131 3.41-2.131.426 0 .8.107 1.146.293v3.41c-1.12-.932-1.918-1.412-3.17-1.412-.374 0-.827.054-1.386.107v6.26c0 1.013 0 2.185.986 3.837h-5.169c.907-1.56.98-2.67.986-3.662V9.884c0-1.305-.266-2.424-.986-3.676l4.183-1.04zm91.429 0V6.98c1.972-1.092 3.41-1.705 4.503-1.705 2.078 0 3.037 1.492 3.037 4.502v4.316c0 .986.027 2.105.959 3.677h-5.142c.96-1.652.96-2.797.96-3.837v-3.01c0-2.77-.4-3.81-3.038-3.81-.426 0-.852.054-1.279.134v6.686c0 1.013 0 2.185.986 3.837h-5.168c.959-1.652.985-2.797.985-3.837V9.884c0-1.305-.266-2.424-.985-3.676l4.182-1.04zm-34.605 0v1.811l.323-.177c1.807-.98 3.147-1.527 4.179-1.527 2.078 0 3.037 1.492 3.037 4.502v4.316c0 .986.027 2.105.96 3.677h-5.142c.959-1.652.959-2.797.959-3.837v-3.01c0-2.77-.4-3.81-3.037-3.81-.427 0-.853.054-1.28.134v6.686c0 1.013 0 2.185.986 3.837h-5.168c.96-1.652.986-2.797.986-3.837V9.884c0-1.305-.267-2.424-.986-3.676l4.183-1.04zM68.439 0l5.035 14.68c.427 1.225 1.04 2.237 1.945 3.089h-5.888c.56-.665.853-1.145.853-1.571 0-.293-.133-.72-.293-1.252l-1.226-3.943h-4.902l-1.332 3.81c-.213.586-.373 1.065-.373 1.438 0 .426.24.906.746 1.519h-4.209c1.279-1.306 1.705-2.585 2.131-3.65L66.228.666 68.439 0zM27.386 11.669c-2.664.213-3.889.852-3.889 2.424 0 1.332.88 2.105 2.398 2.105.533 0 1.012-.027 1.491-.133v-4.396zm115.592-5.461c-1.252 0-1.918.932-1.918 2.717 0 2.078.826 3.357 2.078 3.357 1.332 0 1.998-.853 1.998-2.558 0-2.211-.852-3.516-2.158-3.516zM66.494 3.464l-2.158 6.26h4.13l-1.972-6.26zm89.805 2.876c-1.519 0-2.345 1.44-2.398 4.263l4.422-.639c0-2.371-.772-3.623-2.024-3.623V6.34zm-2.398 4.743v.213c0 3.25 1.758 4.982 5.035 4.982.773 0 1.732-.107 2.877-.293-1.518 1.412-3.277 2.131-5.195 2.131-3.65 0-5.994-2.45-5.994-6.26 0-3.864 2.504-6.58 6.127-6.58 3.01 0 4.982 2.077 4.982 5.674v.133h-7.832zm13.239-3.677c1.386-1.332 2.319-2.131 3.411-2.131.426 0 .8.107 1.146.293v3.41c-1.12-.932-1.918-1.412-3.17-1.412-.374 0-.827.054-1.386.107v6.26c0 1.013 0 2.185.986 3.837h-5.169c.96-1.652.986-2.798.986-3.836v-4.05c0-1.305-.266-2.424-.986-3.676l4.183-1.04v2.238h-.001zM188.906.32v3.81l-2.637-2.105c-.586-.453-1.12-.48-1.865-.48h-2.425v6.66h1.945c1.04 0 1.412-.266 1.865-.612l1.919-1.386v5.222l-2.238-1.572c-.587-.4-1.093-.4-1.705-.4h-1.786v7.087h2.638c.666 0 1.146-.16 1.679-.56l3.063-2.317-.56 4.103H177.69c.96-1.652.96-2.798.96-3.837V4.156c0-1.039 0-2.184-.96-3.836h11.216zm10.15 8.498c-1.918-1.412-3.037-2.344-3.756-2.344-.853 0-1.519.613-1.519 1.439 0 .772.533 1.278 1.492 1.811l1.812 1.013c1.651.932 2.477 1.89 2.477 3.463 0 2.318-1.838 3.97-4.848 3.97a11.97 11.97 0 01-3.943-.693v-3.09c1.971 1.518 3.143 2.557 4.182 2.557.933 0 1.626-.72 1.626-1.598 0-.96-.693-1.333-1.652-1.919l-1.838-1.119c-1.492-.906-2.212-1.891-2.212-3.33 0-2.291 1.679-3.703 4.69-3.703 1.145 0 2.317.16 3.49.506v3.037h-.001zm5.914-3.383h3.996V6.74h-3.996v6.9c0 1.972.506 2.611 2.638 2.611.56 0 1.199-.026 1.918-.106-1.092 1.172-2.798 1.838-4.61 1.838-2.477 0-3.116-1.092-3.116-3.543v-7.7h-2.051c1.811-1.199 3.49-2.877 5.221-4.875v3.57zm7.912 8.658c0 1.332.88 2.105 2.398 2.105.533 0 1.012-.027 1.492-.133v-4.396c-2.664.213-3.89.852-3.89 2.424zm6.953-.32c0 1.12.08 2.185.96 3.49l-3.41.72c-.32-.48-.507-1.04-.613-1.652-1.492 1.12-2.718 1.652-3.57 1.652-1.945 0-3.384-1.519-3.384-3.57 0-2.478 1.812-3.597 5.542-3.597.453 0 .906.027 1.412.054V8.925c0-1.652-.427-2.424-1.918-2.424-1.092 0-2.105 1.092-3.943 2.85V5.968a16.472 16.472 0 014.662-.693c1.865 0 3.117.346 3.836 1.226.4.506.426 1.198.426 2.077v5.196-.001zm6.314-8.338h3.996V6.74h-3.996v6.9c0 1.972.506 2.611 2.638 2.611.559 0 1.198-.026 1.918-.106-1.093 1.172-2.798 1.838-4.61 1.838-2.477 0-3.116-1.092-3.116-3.543v-7.7h-2.052c1.812-1.199 3.49-2.877 5.222-4.875v3.57zm10.336.905c-1.518 0-2.344 1.44-2.398 4.263l4.423-.639c0-2.371-.773-3.623-2.025-3.623V6.34zm-2.398 4.743v.213c0 3.25 1.759 4.982 5.036 4.982.772 0 1.731-.107 2.877-.293-1.519 1.412-3.277 2.131-5.195 2.131-3.65 0-5.994-2.45-5.994-6.26 0-3.864 2.504-6.58 6.127-6.58 3.01 0 4.982 2.077 4.982 5.674v.133h-7.833z" fill="currentColor" fill-rule="nonzero"/></svg>
